<svg width="77" height="77" viewBox="0 0 77 77" fill="none" xmlns="http://www.w3.org/2000/svg">
<path d="M40.951 38.1741L21.2663 26.805C20.54 26.3861 19.7162 26.1657 18.8778 26.166C18.0393 26.1663 17.2157 26.3872 16.4897 26.8066C15.7636 27.226 15.1607 27.829 14.7415 28.5552C14.3223 29.2813 14.1016 30.105 14.1016 30.9434V53.6738C14.1011 54.5124 14.3216 55.3363 14.7408 56.0626C15.16 56.7889 15.7631 57.392 16.4894 57.8111C17.2157 58.2303 18.0396 58.4507 18.8782 58.4502C19.7168 58.4497 20.5405 58.2283 21.2663 57.8084L40.951 46.4432C41.6768 46.0242 42.2796 45.4215 42.6986 44.6958C43.1177 43.97 43.3383 43.1467 43.3383 42.3086C43.3383 41.4705 43.1177 40.6472 42.6986 39.9215C42.2796 39.1957 41.6768 38.593 40.951 38.1741Z" fill="#FF894D"/>
<path d="M39.9041 36.2167L20.2156 24.8476C19.4895 24.4284 18.6659 24.2078 17.8276 24.208C16.9892 24.2082 16.1657 24.4291 15.4399 24.8486C14.714 25.2681 14.1114 25.8713 13.6927 26.5976C13.274 27.3239 13.054 28.1477 13.0547 28.986V51.7164C13.054 52.5548 13.274 53.3785 13.6927 54.1048C14.1114 54.8311 14.714 55.4343 15.4399 55.8538C16.1657 56.2733 16.9892 56.4942 17.8276 56.4944C18.6659 56.4946 19.4895 56.274 20.2156 55.8548L39.9041 44.4858C40.63 44.0668 41.2327 43.4641 41.6518 42.7384C42.0708 42.0126 42.2915 41.1893 42.2915 40.3512C42.2915 39.5131 42.0708 38.6898 41.6518 37.9641C41.2327 37.2383 40.63 36.6356 39.9041 36.2167Z" fill="#FED02B"/>
<path opacity="0.46" d="M19.6539 56.1884L23.6916 53.8635C20.4613 49.9615 18.5248 45.1513 18.1506 40.0995C17.7764 35.0478 18.9829 30.0048 21.603 25.6694L19.6655 24.5457C18.9967 24.1632 18.2392 23.9629 17.4687 23.9649C16.6982 23.9668 15.9417 24.171 15.2749 24.557C14.608 24.943 14.0542 25.4973 13.6687 26.1644C13.2832 26.8315 13.0796 27.5881 13.0781 28.3586V52.3832C13.0821 53.1514 13.2869 53.9051 13.6724 54.5696C14.0578 55.234 14.6104 55.786 15.2753 56.1707C15.9401 56.5555 16.6941 56.7595 17.4622 56.7626C18.2304 56.7657 18.986 56.5678 19.6539 56.1884Z" fill="#FF894D"/>
<path opacity="0.61" d="M39.8974 36.2165L26.2188 28.3193C26.2141 30.1289 26.3802 31.9349 26.7148 33.7132C28.4508 39.4947 33.9726 44.1756 40.2422 44.2608C40.9009 43.8015 41.4329 43.1834 41.789 42.4637C42.1451 41.7441 42.3138 40.9461 42.2794 40.1439C42.245 39.3417 42.0086 38.5611 41.5923 37.8746C41.1759 37.188 40.5929 36.6177 39.8974 36.2165Z" fill="#FFAC3E"/>
<path d="M73.6048 29.0639C71.8621 30.1894 70.1926 31.4241 68.6061 32.7606C67.1488 33.9848 65.7789 35.3094 64.5064 36.7247C63.9949 37.2943 63.5183 37.8639 63.0688 38.4374C62.9745 43.4233 61.3368 48.2573 58.3812 52.2738C55.4255 56.2902 51.2974 59.2916 46.5651 60.8645C41.8329 62.4374 36.7295 62.5044 31.9575 61.0564C27.1856 59.6084 22.98 56.7166 19.9198 52.7792C16.8597 48.8418 15.0955 44.0525 14.8703 39.0708C14.645 34.0891 15.9698 29.1601 18.6622 24.9626C21.3545 20.7651 25.282 17.5056 29.9038 15.6328C34.5256 13.7601 39.6143 13.3664 44.4691 14.5058C45.0154 12.4114 45.7042 10.3568 46.5306 8.35627C47.4361 6.01306 48.5515 3.75642 49.863 1.61388C41.7964 -0.804248 33.1549 -0.472442 25.2975 2.55711C17.44 5.58667 10.8125 11.1421 6.45729 18.3497C2.10204 25.5572 0.266143 34.008 1.23833 42.373C2.21051 50.7379 5.93563 58.5424 11.8278 64.559C17.72 70.5756 25.4449 74.4629 33.7877 75.6097C42.1305 76.7564 50.6178 75.0975 57.9148 70.8938C65.2118 66.6901 70.9045 60.1801 74.0976 52.3877C77.2906 44.5953 77.8029 35.9626 75.5538 27.8472C74.8951 28.2347 74.2364 28.6338 73.6048 29.0639Z" fill="url(#paint0_linear_912_50760)"/>
<path opacity="0.33" d="M75.5505 27.8477C74.8917 28.2351 74.2369 28.6226 73.613 29.0489C73.0589 29.4054 72.5203 29.7774 71.9894 30.1494C71.7517 31.2989 71.4676 32.4498 71.1369 33.6019C64.8169 55.414 43.8612 68.519 24.3238 62.8655C13.2299 59.6764 4.97625 51.0934 1.07031 40.3017C1.38272 45.6216 2.81133 50.8162 5.26325 55.5477C7.71517 60.2792 11.1355 64.4416 15.3018 67.7643C19.4681 71.0871 24.2872 73.4957 29.4456 74.8336C34.6039 76.1715 39.9862 76.4088 45.2422 75.5299C50.4983 74.651 55.5106 72.6757 59.9531 69.7324C64.3956 66.7891 68.1689 62.9437 71.0276 58.4463C73.8862 53.9489 75.7663 48.9001 76.5456 43.6283C77.3248 38.3566 76.9858 32.9798 75.5505 27.8477Z" fill="#2E54E5"/>
<path d="M75.5552 27.8477C74.8965 28.2351 74.2416 28.6226 73.6178 29.0489C71.8752 30.1743 70.2056 31.409 68.6191 32.7456C67.7279 33.5025 66.8857 34.2775 66.0926 35.0705C65.8343 36.3751 65.5179 37.681 65.1433 38.9881C58.8349 60.804 37.8792 73.9052 18.3418 68.2555C16.9418 67.8492 15.5698 67.3521 14.2344 66.7675C20.4096 72.0593 28.1205 75.2289 36.2321 75.8097C44.3437 76.3906 52.4276 74.352 59.2938 69.9941C66.16 65.6362 71.4458 59.1892 74.3732 51.6019C77.3006 44.0147 77.7149 35.688 75.5552 27.8477Z" fill="url(#paint1_linear_912_50760)"/>
<path d="M48.4985 4.02032C48.9441 3.16008 49.4013 2.35022 49.8741 1.59848C47.3159 0.835137 44.6846 0.342897 42.0234 0.129883C44.3212 1.17903 46.4933 2.4841 48.4985 4.02032Z" fill="url(#paint2_linear_912_50760)"/>
<path d="M75.5564 27.8477C74.8977 28.2351 74.2428 28.6226 73.619 29.0489C71.8764 30.1743 70.2068 31.409 68.6203 32.7456C67.163 33.9697 65.7931 35.2943 64.5206 36.7096C64.0285 37.2599 63.5713 37.8101 63.1334 38.3565C63.0946 38.9997 63.0404 39.6391 62.9706 40.294C62.9319 40.7202 62.8776 41.1426 62.8157 41.5572C62.5138 43.7946 62.0475 46.0067 61.4207 48.1756C57.6194 61.3155 48.5055 71.2934 37.5859 75.9163C38.0471 75.9163 38.512 75.9434 38.9809 75.9434C44.8292 75.9395 50.5976 74.5849 55.8363 71.9852C61.075 69.3854 65.6425 65.6109 69.1826 60.9557C72.7227 56.3006 75.1398 50.8907 76.2454 45.1479C77.351 39.405 77.1152 33.4844 75.5564 27.8477Z" fill="url(#paint3_linear_912_50760)"/>
<path opacity="0.6" d="M14.8523 37.9765C14.8486 34.2564 15.7075 30.5862 17.3615 27.2541C19.0155 23.922 21.4194 21.0187 24.3846 18.7723C27.1308 15.6079 30.5179 13.0631 34.3216 11.3062C38.1253 9.54928 42.2589 8.62046 46.4485 8.5812L46.5415 8.34871C46.6423 8.09684 46.7469 7.84884 46.8476 7.60084C46.9504 5.38655 47.1755 3.17964 47.5219 0.990202C40.3618 -0.670786 32.8734 -0.216163 25.9669 2.29881C19.0603 4.81379 13.033 9.28082 8.61752 15.157C7.59891 23.0154 8.57847 31.0038 11.4656 38.3833C13.3089 43.2188 15.912 47.7291 19.1767 51.7441C16.3568 47.7073 14.8471 42.9007 14.8523 37.9765Z" fill="#1F6BDB"/>
<path d="M67.1907 16.7571C70.1434 15.4784 74.0261 21.8798 74.0261 21.8798C72.1661 22.9454 68.9887 25.3982 67.3263 26.6498C65.6954 27.8607 64.1424 29.173 62.6764 30.579C61.3088 31.8895 60.0335 33.293 58.8596 34.7794C57.7909 36.1226 56.8295 37.5478 55.9844 39.0419L53.8803 38.4025C53.8803 37.736 53.8803 37.0308 53.9346 36.2907C53.9888 35.5506 54.0624 34.8104 54.1671 34.0703C54.2676 33.3535 54.4099 32.6432 54.5933 31.943C54.7525 31.3266 54.9505 30.7209 55.1862 30.1295C54.2329 29.8014 53.3197 29.4979 52.4466 29.2189C51.5358 28.9215 50.6691 28.5032 49.8698 27.9751C48.4592 27.1291 47.4188 25.783 46.9558 24.2047C46.7156 23.3213 46.7233 22.0193 46.9791 20.2988C47.3092 18.2953 47.8096 16.3235 48.4748 14.405C49.1709 12.1199 50.1334 9.92452 51.3422 7.86414C52.3885 6.17208 53.7176 5.10518 55.3295 4.66344C56.8434 4.21246 58.4634 4.271 59.9407 4.83006C60.2972 5.01348 60.8436 5.3041 61.5798 5.70192C62.4068 6.16041 63.1994 6.67843 63.9513 7.2519L63.0794 15.5753C60.1448 14.157 58.1802 13.5823 57.1856 13.8509C56.6608 13.994 56.1435 14.1634 55.6357 14.3585C55.0746 14.5812 54.5597 14.9057 54.1167 15.3156C53.6592 15.7086 53.2577 16.1623 52.9232 16.6641C52.8047 16.8182 52.7197 16.9953 52.6737 17.1842C52.6276 17.373 52.6215 17.5694 52.6558 17.7607C53.1234 19.4786 56.1523 20.4964 61.7426 20.8142C63.4553 19.4269 65.2533 18.0849 67.1365 16.7881" fill="url(#paint4_linear_912_50760)"/>
<path d="M14.8462 37.9763C14.8445 34.3399 15.6653 30.7502 17.2471 27.4759C18.8289 24.2015 21.1308 21.3274 23.9805 19.0684C26.8301 16.8095 30.1538 15.2243 33.7027 14.4315C37.2516 13.6387 40.9339 13.6588 44.474 14.4903C45.0203 12.396 45.7091 10.3413 46.5354 8.34082C47.441 5.9976 48.5563 3.74097 49.8679 1.59843C43.8946 -0.191717 37.5724 -0.483326 31.4596 0.749358C25.3469 1.98204 19.6318 4.70108 14.8191 8.66631C11.3316 15.0406 9.78167 23.1314 10.9442 31.6214C11.7022 37.303 13.7097 42.746 16.8224 47.5591C15.5125 44.5345 14.8398 41.2724 14.8462 37.9763Z" fill="url(#paint5_linear_912_50760)"/>
<path d="M75.5561 27.8477C74.8974 28.2351 74.2425 28.6226 73.6187 29.0489C71.8761 30.1743 70.2065 31.409 68.62 32.7456C67.1627 33.9697 65.7928 35.2943 64.5203 36.7096C64.0127 37.2754 63.54 37.845 63.0905 38.4107C63.6199 40.2493 64.0187 42.123 64.284 44.0178C65.7216 54.3716 63.0982 64.1248 57.8516 70.9021C65.1659 66.7118 70.8766 60.2052 74.0825 52.4091C77.2884 44.6129 77.8069 35.9712 75.5561 27.8477Z" fill="url(#paint6_linear_912_50760)"/>
<path d="M56.7109 72.4635C57.6715 71.244 58.5307 69.9481 59.28 68.5886C60.7912 65.9024 61.9626 63.0388 62.7675 60.0637C63.1788 58.5857 63.4959 57.0831 63.7168 55.5649C64.1657 52.5177 64.2878 49.4312 64.0811 46.3581C63.8634 43.2546 63.4205 40.1711 62.7558 37.1318C63.9093 40.0672 64.6904 43.1355 65.0808 46.2651C65.4813 49.4174 65.4552 52.6094 65.0033 55.7548C64.7672 57.327 64.4215 58.8807 63.9687 60.4047C63.499 61.9156 62.9147 63.3884 62.2211 64.8105C61.5374 66.24 60.7378 67.6112 59.8303 68.9102C58.9325 70.2121 57.8856 71.4046 56.7109 72.4635Z" fill="white"/>
<path opacity="0.19" d="M44.474 14.4903C45.0204 12.3959 45.7091 10.3412 46.5355 8.34073C46.7809 7.73108 47.0263 7.14596 47.2717 6.58539C36.5536 6.27539 25.4558 13.0565 19.0234 24.4101C21.765 20.377 25.665 17.27 30.2087 15.499C34.7524 13.728 39.7263 13.3763 44.474 14.4903Z" fill="#92FAFF"/>
<path d="M42.0185 41.9177C42.386 40.8695 42.3752 39.7259 41.9881 38.6849C41.601 37.6438 40.8619 36.771 39.8989 36.2176L34.6406 33.1797C35.8778 36.9366 38.5221 40.0683 42.0185 41.9177Z" fill="#FED02B"/>
<path opacity="0.19" d="M75.5557 27.8477C74.8969 28.2351 74.2421 28.6226 73.6182 29.0489C72.2465 29.9401 70.9406 30.874 69.7239 31.8427C71.461 39.3118 71.238 47.1031 69.0768 54.4607C67.7672 59.0085 65.7537 63.3232 63.1094 67.248C68.7714 62.5872 72.9606 56.3847 75.1696 49.3917C77.3786 42.3988 77.5127 34.9153 75.5557 27.8477Z" fill="#92FAFF"/>
<path opacity="0.35" d="M63.7285 9.40655L63.9532 7.27534C63.2013 6.70187 62.4088 6.18384 61.5817 5.72536C60.8455 5.32753 60.2991 5.03691 59.9427 4.8535C58.4653 4.29444 56.8453 4.2359 55.3315 4.68688C53.7195 5.12604 52.3904 6.19294 51.3442 7.88758C50.1353 9.94796 49.1729 12.1433 48.4767 14.4285C47.8116 16.347 47.3112 18.3187 46.981 20.3222C46.7227 22.0427 46.7149 23.3447 46.9577 24.2282C47.0555 24.5728 47.1852 24.9075 47.3452 25.2279C48.1202 20.1362 50.1429 15.2422 53.5451 11.3169C56.2305 8.40682 60.2643 8.01157 63.7285 9.40655Z" fill="url(#paint7_linear_912_50760)"/>
<path opacity="0.2" d="M54.5723 29.9405L55.1845 30.1497C54.9489 30.7411 54.7509 31.3468 54.5917 31.9632C54.4083 32.6634 54.266 33.3737 54.1654 34.0905C54.0608 34.8306 53.9833 35.5746 53.9329 36.3109C53.8825 37.0471 53.867 37.7562 53.8787 38.4227L55.9828 39.0621C56.8279 37.568 57.7892 36.1428 58.858 34.7996C60.0319 33.3132 61.3072 31.9097 62.6748 30.5992C64.1407 29.1932 65.6938 27.8809 67.3247 26.67C69.0064 25.4184 72.1645 22.9656 74.0245 21.9C74.0245 21.9 70.1495 15.4986 67.1891 16.7773L67.1309 16.8161C65.2477 18.1077 63.4498 19.4497 61.737 20.8421L61.3495 20.8189L60.8923 21.2839C58.4512 23.9097 56.3297 26.8155 54.5723 29.9405Z" fill="url(#paint8_linear_912_50760)"/>
<defs>
<linearGradient id="paint0_linear_912_50760" x1="3.61177" y1="6.73655" x2="67.773" y2="68.7627" gradientUnits="userSpaceOnUse">
<stop offset="0.16" stop-color="#0F83CE"/>
<stop offset="0.59" stop-color="#5C5FEE"/>
<stop offset="1" stop-color="#9672F6"/>
</linearGradient>
<linearGradient id="paint1_linear_912_50760" x1="65.5579" y1="44.3936" x2="34.8374" y2="70.2356" gradientUnits="userSpaceOnUse">
<stop offset="0.01" stop-color="#CBA4F1"/>
<stop offset="1" stop-color="#7165EF"/>
</linearGradient>
<linearGradient id="paint2_linear_912_50760" x1="42.9108" y1="-2.07108" x2="49.1339" y2="3.94282" gradientUnits="userSpaceOnUse">
<stop offset="0.16" stop-color="#0F83CE"/>
<stop offset="0.59" stop-color="#5C5FEE"/>
<stop offset="1" stop-color="#9672F6"/>
</linearGradient>
<linearGradient id="paint3_linear_912_50760" x1="76.3004" y1="28.8048" x2="37.7216" y2="96.0388" gradientUnits="userSpaceOnUse">
<stop stop-color="#B497F1"/>
<stop offset="1" stop-color="#7165EF"/>
</linearGradient>
<linearGradient id="paint4_linear_912_50760" x1="54.7716" y1="2.4276" x2="63.7459" y2="34.7988" gradientUnits="userSpaceOnUse">
<stop stop-color="#0F83CE"/>
<stop offset="1" stop-color="#5C5FEE"/>
</linearGradient>
<linearGradient id="paint5_linear_912_50760" x1="47.6243" y1="-11.1579" x2="4.566" y2="43.3044" gradientUnits="userSpaceOnUse">
<stop stop-color="#3FDFDD"/>
<stop offset="1" stop-color="#148AD2"/>
</linearGradient>
<linearGradient id="paint6_linear_912_50760" x1="73.3901" y1="26.0536" x2="64.2336" y2="64.892" gradientUnits="userSpaceOnUse">
<stop stop-color="#3FDFDD"/>
<stop offset="1" stop-color="#148AD2"/>
</linearGradient>
<linearGradient id="paint7_linear_912_50760" x1="46.7834" y1="14.8043" x2="63.9532" y2="14.8043" gradientUnits="userSpaceOnUse">
<stop offset="0.01" stop-color="#CBA4F1"/>
<stop offset="1" stop-color="#7165EF"/>
</linearGradient>
<linearGradient id="paint8_linear_912_50760" x1="60.3847" y1="17.2849" x2="65.3756" y2="35.284" gradientUnits="userSpaceOnUse">
<stop offset="0.01" stop-color="#CBA4F1"/>
<stop offset="1" stop-color="#7165EF"/>
</linearGradient>
</defs>
</svg>
